<?xml version="1.0" encoding="UTF-8"?>
<svg xmlns="http://www.w3.org/2000/svg" xmlns:xlink="http://www.w3.org/1999/xlink" width="34px" height="34px" viewBox="0 0 34 34" version="1.1">
<g id="surface1">
<path style=" stroke:none;fill-rule:nonzero;fill:rgb(11.372549%,11.372549%,10.588235%);fill-opacity:1;" d="M 5.238281 14.835938 C 4.269531 13.761719 3.464844 12.550781 2.847656 11.242188 C 1.839844 9.089844 1.828125 7.894531 2.050781 7.808594 C 2.273438 7.722656 5.515625 7.867188 6.992188 7.878906 C 8.46875 7.890625 9.117188 7.878906 9.117188 7.792969 C 9.117188 7.707031 8.898438 5.351562 8.710938 4.074219 C 8.527344 2.800781 8.347656 1.949219 8.453125 1.917969 C 10.003906 2.03125 11.523438 2.390625 12.960938 2.980469 C 15.617188 3.953125 16.148438 4.898438 16.148438 4.898438 C 17.648438 3.75 19.300781 2.816406 21.058594 2.125 C 23.636719 1.222656 24.648438 1.347656 24.742188 1.503906 C 24.832031 1.65625 23.527344 7.554688 23.753906 7.617188 C 24.941406 7.605469 26.121094 7.410156 27.253906 7.039062 C 28.703125 6.566406 30.972656 5.445312 31.210938 5.445312 C 31.449219 5.445312 31.648438 7.316406 30.648438 9.617188 C 29.648438 11.914062 29.410156 12.230469 29.5 12.273438 C 30.238281 12.085938 30.957031 11.84375 31.65625 11.550781 C 32.40625 11.234375 32.800781 11.1875 32.890625 11.453125 C 33.125 13.421875 32.640625 15.40625 31.523438 17.042969 C 29.820312 19.304688 29.070312 19.421875 29.007812 19.511719 C 28.941406 19.601562 29.007812 20.082031 30.648438 20.421875 C 32.289062 20.761719 33.117188 20.734375 33.097656 21.089844 C 32.730469 22.726562 31.714844 24.140625 30.28125 25.011719 C 28.109375 26.308594 27.976562 26.308594 28.023438 26.484375 C 28.070312 26.65625 28.097656 30.203125 28.023438 30.472656 C 27.949219 30.742188 27.210938 31.210938 26.042969 31.003906 C 24.980469 30.804688 23.953125 30.464844 22.988281 29.988281 C 22.753906 29.832031 22.539062 29.65625 22.34375 29.457031 C 22.34375 29.457031 20.390625 30.488281 19.925781 30.667969 C 19.652344 30.777344 19.363281 30.855469 19.070312 30.898438 C 19.070312 30.898438 19.070312 32.394531 19.011719 32.492188 C 18.890625 32.605469 18.714844 32.648438 18.550781 32.601562 C 18.273438 32.558594 17.992188 32.558594 17.71875 32.601562 C 17.542969 32.644531 17.359375 32.644531 17.1875 32.601562 C 16.90625 32.578125 16.625 32.578125 16.347656 32.601562 C 16.101562 32.601562 15.507812 32.601562 15.464844 32.453125 C 15.421875 32.304688 15.34375 31.019531 15.34375 31.019531 C 14.503906 30.957031 13.6875 30.738281 12.929688 30.375 C 12.460938 30.125 12.039062 29.789062 11.6875 29.390625 C 10.984375 30.082031 10.085938 30.550781 9.117188 30.734375 C 7.707031 30.898438 6.953125 30.734375 6.992188 30.617188 C 7.027344 30.5 8.113281 26.992188 7.847656 27.015625 C 7.582031 27.035156 2.976562 27.230469 2.597656 27.230469 C 2.21875 27.230469 1.800781 26.800781 1.953125 26.46875 C 2.109375 26.132812 4.078125 22.875 4.828125 22.121094 C 5.578125 21.367188 5.992188 20.898438 5.992188 20.898438 C 5.050781 20.503906 4.0625 20.230469 3.050781 20.085938 C 1.59375 19.921875 0.839844 19.4375 0.925781 19.261719 C 1.550781 18.207031 2.332031 17.25 3.242188 16.421875 C 4.292969 15.554688 5.238281 14.835938 5.238281 14.835938 Z M 5.238281 14.835938 "/>
<path style=" stroke:none;fill-rule:nonzero;fill:rgb(79.607843%,90.588235%,96.078431%);fill-opacity:1;" d="M 3.113281 8.679688 C 3.273438 8.519531 10.285156 8.710938 10.304688 8.578125 C 10.328125 8.445312 9.308594 2.65625 9.507812 2.65625 C 11.167969 3.140625 12.769531 3.804688 14.289062 4.628906 C 15.6875 5.519531 15.757812 5.847656 16.132812 5.828125 C 16.511719 5.804688 18.257812 4.132812 20.613281 3.234375 C 22.964844 2.335938 23.757812 2.277344 23.757812 2.371094 C 23.757812 2.460938 22.992188 6.253906 22.84375 6.960938 C 22.695312 7.664062 22.609375 8.414062 22.765625 8.457031 C 24.246094 8.5 25.722656 8.320312 27.152344 7.925781 C 29.238281 7.335938 30.734375 6.511719 30.757812 6.667969 C 30.261719 8.328125 29.617188 9.941406 28.832031 11.492188 C 28.199219 12.464844 27.945312 13.300781 28.078125 13.371094 C 28.210938 13.441406 28.957031 13.207031 30.386719 12.777344 C 31.816406 12.347656 31.980469 12.277344 31.980469 12.347656 C 32.007812 13.785156 31.601562 15.199219 30.8125 16.40625 C 29.957031 17.558594 28.964844 18.601562 27.859375 19.511719 C 28.011719 20.097656 28.394531 20.597656 28.921875 20.894531 C 29.542969 21.175781 31.949219 21.53125 31.929688 21.664062 C 31.359375 23.003906 30.371094 24.125 29.105469 24.851562 C 27.242188 25.8125 27.019531 25.914062 26.980469 26.085938 C 26.945312 26.253906 27.078125 29.941406 26.921875 29.960938 C 26.023438 29.890625 25.132812 29.730469 24.265625 29.480469 C 23.519531 29.21875 23.203125 28.980469 23.203125 28.914062 C 23.804688 28.183594 24.308594 27.378906 24.707031 26.519531 C 24.921875 26.007812 25.066406 25.472656 25.140625 24.925781 C 25.140625 24.925781 27.566406 25.042969 27.796875 23.332031 C 28.023438 21.621094 26.789062 21.308594 26.441406 21.25 C 26.207031 21.199219 25.972656 21.167969 25.734375 21.164062 C 25.734375 21.164062 26.351562 15.691406 24.496094 12.664062 C 22.640625 9.636719 20.664062 8.039062 16.65625 8.203125 C 12.644531 8.367188 10.496094 10.480469 9.515625 14.578125 C 8.53125 18.671875 8.792969 21.027344 8.792969 21.027344 C 8.792969 21.027344 6.832031 21.105469 6.890625 23.535156 C 6.949219 25.960938 9.507812 25.472656 9.507812 25.472656 C 9.496094 26.207031 9.699219 26.929688 10.09375 27.550781 C 10.742188 28.539062 11.035156 28.910156 11.035156 28.910156 C 11.035156 28.910156 8.441406 29.898438 8.421875 29.75 C 8.398438 29.601562 9.085938 27.339844 8.992188 27.09375 C 8.902344 26.847656 8.460938 26.371094 8.304688 26.371094 C 8.144531 26.371094 3.144531 26.589844 3.097656 26.371094 C 3.050781 26.152344 4.207031 24.375 5.367188 22.914062 C 6.523438 21.453125 7.09375 20.890625 7.070312 20.691406 C 7.050781 20.496094 6.269531 19.570312 4.5625 19.320312 C 2.859375 19.070312 2.183594 19.097656 2.226562 19.035156 C 3.058594 17.964844 4.011719 16.992188 5.066406 16.144531 C 5.59375 15.859375 6.050781 15.464844 6.40625 14.988281 C 5.503906 13.976562 4.710938 12.871094 4.042969 11.6875 C 3.101562 9.917969 3.050781 8.75 3.113281 8.679688 Z M 3.113281 8.679688 "/>
<path style=" stroke:none;fill-rule:nonzero;fill:rgb(11.372549%,11.372549%,10.588235%);fill-opacity:1;" d="M 10.90625 6.375 C 10.714844 5.582031 10.570312 4.78125 10.464844 3.972656 C 11.136719 4.15625 11.789062 4.402344 12.414062 4.707031 C 12.414062 4.796875 12.414062 5.175781 12.351562 5.175781 C 11.976562 5.070312 11.589844 4.992188 11.203125 4.941406 C 11.203125 5.003906 11.382812 6.003906 11.363281 6.039062 C 11.34375 6.078125 10.949219 6.433594 10.90625 6.375 Z M 10.90625 6.375 "/>
<path style=" stroke:none;fill-rule:nonzero;fill:rgb(11.372549%,11.372549%,10.588235%);fill-opacity:1;" d="M 19.125 5.046875 C 19.652344 4.597656 20.234375 4.214844 20.855469 3.910156 C 21.496094 3.679688 21.386719 3.574219 21.496094 3.679688 C 21.601562 3.789062 21.742188 4.144531 21.675781 4.210938 C 21.125 4.398438 20.59375 4.632812 20.082031 4.910156 C 19.578125 5.242188 19.550781 5.441406 19.429688 5.398438 C 19.304688 5.355469 19.1875 5.136719 19.125 5.046875 Z M 19.125 5.046875 "/>
<path style=" stroke:none;fill-rule:nonzero;fill:rgb(90.196078%,89.411765%,85.490196%);fill-opacity:1;" d="M 8.753906 22.003906 C 8.957031 22.851562 9.082031 23.710938 9.125 24.582031 C 9.0625 24.582031 7.875 24.4375 7.863281 23.578125 C 7.890625 22.941406 8.222656 22.355469 8.753906 22.003906 Z M 8.753906 22.003906 "/>
<path style=" stroke:none;fill-rule:nonzero;fill:rgb(90.196078%,89.411765%,85.490196%);fill-opacity:1;" d="M 25.761719 22.027344 C 25.828125 21.953125 27.019531 22.027344 26.824219 23.050781 C 26.625 24.078125 25.339844 24.4375 25.3125 24.300781 C 25.410156 23.882812 25.523438 23.46875 25.660156 23.0625 C 25.808594 22.441406 25.628906 22.160156 25.761719 22.027344 Z M 25.761719 22.027344 "/>
<path style=" stroke:none;fill-rule:nonzero;fill:rgb(90.196078%,89.411765%,85.490196%);fill-opacity:1;" d="M 16.574219 9.148438 C 18.699219 9.148438 21.269531 9.265625 23.285156 12.777344 C 25.296875 16.289062 25.074219 19.070312 24.527344 22.210938 C 23.980469 25.351562 23.109375 27.226562 22.566406 27.828125 C 22.359375 28.074219 22.132812 28.304688 21.886719 28.515625 C 21.480469 28.195312 21.042969 27.910156 20.582031 27.667969 C 20.46875 27.710938 20.316406 27.871094 20.363281 27.953125 C 20.410156 28.039062 21.425781 28.761719 21.382812 28.832031 C 21.339844 28.898438 20.765625 29.296875 20.703125 29.230469 C 20.285156 28.871094 19.847656 28.535156 19.390625 28.226562 C 19.304688 28.226562 19.039062 28.425781 19.085938 28.515625 C 19.136719 28.609375 20.347656 29.390625 20.21875 29.480469 C 20.09375 29.570312 19.386719 29.882812 19.296875 29.8125 C 19.203125 29.746094 18.269531 28.789062 18.183594 28.789062 C 18.101562 28.789062 17.855469 28.921875 17.917969 29.03125 C 17.984375 29.144531 18.679688 29.972656 18.679688 29.972656 C 17.242188 30.144531 15.789062 30.128906 14.355469 29.921875 C 12.390625 29.558594 11.003906 27.390625 10.371094 25.082031 C 9.738281 22.769531 9.738281 17.851562 10.421875 15.128906 C 11.109375 12.410156 12.3125 9.179688 16.574219 9.148438 Z M 16.574219 9.148438 "/>
<path style=" stroke:none;fill-rule:nonzero;fill:rgb(90.196078%,89.411765%,85.490196%);fill-opacity:1;" d="M 16.058594 31.007812 C 16.125 30.945312 16.722656 31.050781 17.320312 31.007812 C 17.914062 30.964844 18.199219 30.976562 18.199219 31.039062 C 18.199219 31.105469 18.273438 32.011719 18.199219 32.035156 C 17.9375 32.117188 17.65625 32.128906 17.386719 32.066406 C 17.140625 31.9375 16.867188 31.878906 16.589844 31.894531 C 16.375 31.9375 16.242188 32.097656 16.171875 32.007812 C 16.085938 31.683594 16.046875 31.34375 16.058594 31.007812 Z M 16.058594 31.007812 "/>
<path style=" stroke:none;fill-rule:nonzero;fill:rgb(11.372549%,11.372549%,10.588235%);fill-opacity:1;" d="M 12.1875 12.382812 C 12.363281 12.320312 13.78125 11.464844 17.1875 11.480469 C 20.589844 11.496094 22.53125 12.410156 22.578125 12.675781 C 22.625 12.941406 22.578125 13.976562 22.390625 13.976562 C 22.207031 13.976562 21.148438 13.238281 17.246094 13.28125 C 13.339844 13.324219 12.21875 14.253906 12 14.105469 C 11.78125 13.957031 11.550781 12.605469 12.1875 12.382812 Z M 12.1875 12.382812 "/>
<path style=" stroke:none;fill-rule:nonzero;fill:rgb(79.607843%,90.588235%,96.078431%);fill-opacity:1;" d="M 12.410156 12.75 C 12.542969 12.472656 14.148438 11.851562 17.367188 12 C 20.585938 12.148438 22.09375 12.691406 22.09375 12.871094 C 22.09375 13.054688 22.207031 13.335938 22.09375 13.335938 C 20.511719 12.878906 18.863281 12.679688 17.21875 12.75 C 15.628906 12.8125 14.050781 13.039062 12.503906 13.425781 C 12.324219 13.371094 12.367188 12.820312 12.410156 12.75 Z M 12.410156 12.75 "/>
<path style=" stroke:none;fill-rule:nonzero;fill:rgb(11.372549%,11.372549%,10.588235%);fill-opacity:1;" d="M 18.667969 14.875 C 20.148438 14.269531 22.917969 14.710938 22.816406 17.734375 C 22.714844 20.757812 19.03125 21.179688 17.78125 19.492188 C 16.53125 17.800781 17.128906 15.496094 18.667969 14.875 Z M 18.667969 14.875 "/>
<path style=" stroke:none;fill-rule:nonzero;fill:rgb(100%,100%,100%);fill-opacity:1;" d="M 18.902344 15.347656 C 20.113281 14.847656 22.375 15.210938 22.308594 17.691406 C 22.238281 20.171875 19.195312 20.523438 18.167969 19.125 C 17.144531 17.726562 17.636719 15.863281 18.902344 15.347656 Z M 18.902344 15.347656 "/>
<path style=" stroke:none;fill-rule:nonzero;fill:rgb(11.372549%,11.372549%,10.588235%);fill-opacity:1;" d="M 12.613281 14.796875 C 13.976562 14.238281 16.515625 14.640625 16.4375 17.425781 C 16.355469 20.207031 12.945312 20.613281 11.792969 19.050781 C 10.640625 17.488281 11.195312 15.375 12.613281 14.796875 Z M 12.613281 14.796875 "/>
<path style=" stroke:none;fill-rule:nonzero;fill:rgb(100%,100%,100%);fill-opacity:1;" d="M 12.828125 15.234375 C 13.945312 14.78125 16.015625 15.109375 15.964844 17.398438 C 15.910156 19.6875 13.101562 20.007812 12.15625 18.730469 C 11.210938 17.457031 11.6875 15.714844 12.828125 15.234375 Z M 12.828125 15.234375 "/>
<path style=" stroke:none;fill-rule:nonzero;fill:rgb(11.372549%,11.372549%,10.588235%);fill-opacity:1;" d="M 13.550781 16.921875 C 13.816406 16.796875 14.128906 16.890625 14.28125 17.136719 C 14.433594 17.386719 14.371094 17.710938 14.140625 17.886719 C 13.910156 18.0625 13.582031 18.035156 13.382812 17.824219 C 13.269531 17.6875 13.222656 17.507812 13.253906 17.332031 C 13.285156 17.15625 13.394531 17.007812 13.550781 16.921875 Z M 13.550781 16.921875 "/>
<path style=" stroke:none;fill-rule:nonzero;fill:rgb(11.372549%,11.372549%,10.588235%);fill-opacity:1;" d="M 19.800781 17.152344 C 20.0625 17.03125 20.378906 17.128906 20.527344 17.375 C 20.675781 17.625 20.613281 17.949219 20.382812 18.125 C 20.148438 18.296875 19.824219 18.269531 19.625 18.058594 C 19.511719 17.921875 19.464844 17.738281 19.5 17.5625 C 19.53125 17.390625 19.644531 17.238281 19.800781 17.152344 Z M 19.800781 17.152344 "/>
<path style=" stroke:none;fill-rule:nonzero;fill:rgb(11.372549%,11.372549%,10.588235%);fill-opacity:1;" d="M 11.644531 20.050781 C 12.09375 20.4375 12.648438 20.675781 13.238281 20.734375 C 13.789062 20.773438 14.34375 20.71875 14.875 20.570312 C 14.980469 20.597656 14.988281 20.914062 14.980469 21 C 14.351562 21.261719 13.65625 21.335938 12.984375 21.207031 C 12.382812 21.136719 11.820312 20.867188 11.390625 20.441406 C 11.34375 20.351562 11.582031 20.050781 11.644531 20.050781 Z M 11.644531 20.050781 "/>
<path style=" stroke:none;fill-rule:nonzero;fill:rgb(11.372549%,11.372549%,10.588235%);fill-opacity:1;" d="M 19.507812 21.027344 C 20.074219 21.207031 20.679688 21.207031 21.246094 21.027344 C 21.765625 20.855469 22.25 20.589844 22.671875 20.246094 C 22.785156 20.246094 22.914062 20.523438 22.9375 20.601562 C 22.460938 21.089844 21.847656 21.425781 21.175781 21.570312 C 20.597656 21.726562 19.988281 21.691406 19.433594 21.46875 C 19.34375 21.425781 19.445312 21.046875 19.507812 21.027344 Z M 19.507812 21.027344 "/>
<path style=" stroke:none;fill-rule:nonzero;fill:rgb(11.372549%,11.372549%,10.588235%);fill-opacity:1;" d="M 15.820312 21.136719 C 15.820312 21.070312 16.207031 20.980469 16.234375 21.085938 C 16.261719 21.191406 16.164062 24.476562 17.070312 24.453125 C 17.972656 24.433594 17.675781 21.074219 17.757812 21.027344 C 17.898438 21 18.039062 21 18.179688 21.027344 C 18.179688 21.027344 18.710938 25.058594 17.117188 25.039062 C 15.523438 25.015625 15.824219 21.179688 15.820312 21.136719 Z M 15.820312 21.136719 "/>
<path style=" stroke:none;fill-rule:nonzero;fill:rgb(11.372549%,11.372549%,10.588235%);fill-opacity:1;" d="M 11.765625 26.191406 C 11.75 25.878906 11.785156 25.566406 11.867188 25.265625 C 12 24.972656 12.398438 24.644531 12.484375 24.664062 C 12.570312 24.6875 12.75 24.90625 12.679688 24.996094 C 12.613281 25.085938 12.222656 25.304688 12.203125 25.570312 C 12.179688 25.835938 12.203125 26.296875 12.144531 26.324219 C 12.007812 26.320312 11.875 26.273438 11.765625 26.191406 Z M 11.765625 26.191406 "/>
<path style=" stroke:none;fill-rule:nonzero;fill:rgb(11.372549%,11.372549%,10.588235%);fill-opacity:1;" d="M 20.757812 24.707031 C 20.757812 24.707031 21.039062 24.375 21.128906 24.375 C 21.488281 24.519531 21.777344 24.804688 21.925781 25.164062 C 22.125 25.695312 22.132812 26.195312 21.976562 26.226562 C 21.824219 26.257812 21.558594 26.296875 21.558594 26.226562 C 21.558594 26.160156 21.777344 25.570312 21.558594 25.214844 C 21.339844 24.976562 21.0625 24.800781 20.757812 24.707031 Z M 20.757812 24.707031 "/>
<path style=" stroke:none;fill-rule:nonzero;fill:rgb(11.372549%,11.372549%,10.588235%);fill-opacity:1;" d="M 12.953125 25.808594 C 13.0625 25.839844 14.132812 26.566406 16.621094 26.484375 C 18.035156 26.40625 19.429688 26.128906 20.761719 25.660156 C 20.824219 25.796875 20.855469 25.949219 20.851562 26.101562 C 20.851562 26.183594 19.070312 27.082031 16.539062 27.035156 C 14.003906 26.988281 12.851562 26.382812 12.820312 26.292969 C 12.789062 26.203125 12.886719 25.785156 12.953125 25.808594 Z M 12.953125 25.808594 "/>
</g>
</svg>
